<svg xmlns="http://www.w3.org/2000/svg" viewBox="0 0 183.08 169.73"><defs><style>.cls-1{fill:#3775b7;}.cls-2{fill:#221f20;}</style></defs><title>Fichier 2</title><g id="Calque_2" data-name="Calque 2"><g id="Calque_1-2" data-name="Calque 1"><path class="cls-1" d="M0,67.33A15.28,15.28,0,0,1,1.25,61a13.41,13.41,0,0,1,3.34-4.59,14.07,14.07,0,0,1,4.55-2.67,14.79,14.79,0,0,1,10.27,0,15.16,15.16,0,0,1,4.64,2.67A13.89,13.89,0,0,1,27.3,61a15.12,15.12,0,0,1,1.26,6.35V98.72a13.81,13.81,0,0,1-1.26,6.1l5.26,4.25-4.34,5.18-5-4.09a13.83,13.83,0,0,1-8.93,3.09,15.12,15.12,0,0,1-5.14-.92,13.3,13.3,0,0,1-4.55-2.76,12.74,12.74,0,0,1-3.34-4.42A15.11,15.11,0,0,1,0,98.72ZM8.52,98.72a5.66,5.66,0,0,0,1.71,4.55,6,6,0,0,0,4,1.46,4.16,4.16,0,0,0,1.83-.33l-3.84-3.09,4.35-5.18L20,98.89V67.33a5.66,5.66,0,0,0-1.71-4.55,6,6,0,0,0-4-1.47,6,6,0,0,0-4,1.47,5.66,5.66,0,0,0-1.71,4.55Z"/><path class="cls-1" d="M106.52,120.73v10.32a41.94,41.94,0,0,1-9.63,27,34.4,34.4,0,0,1-10.55,8.56,27.64,27.64,0,0,1-13,3.16,41.53,41.53,0,0,1-12.08-1.87,27.52,27.52,0,0,1-11.07-6.57,36.1,36.1,0,0,1-8.09-12.07q-3.18-7.38-3.18-18.87V38.45a45.87,45.87,0,0,1,2.46-15.24,36.64,36.64,0,0,1,7-12.19A31.87,31.87,0,0,1,72.92,0q14.76,0,24,11A40.22,40.22,0,0,1,104,23.8a48.58,48.58,0,0,1,2.56,16.05v9.38H85.63v-8a21.28,21.28,0,0,0-3.49-12.19,10.82,10.82,0,0,0-9.42-5.16q-7.78,0-10.35,5.51c-1.71,3.68-2.56,8.32-2.56,13.95v85.34a24.56,24.56,0,0,0,2.77,12.19q2.76,4.92,9.93,4.92a13.36,13.36,0,0,0,4.41-.82,12.55,12.55,0,0,0,4.4-2.7,14.43,14.43,0,0,0,3.08-5.16,23.53,23.53,0,0,0,1.23-8.2v-8.21Z"/><path class="cls-2" d="M68.18,113.54V55.15H93.11V63H76.54V80.17H91V88H76.54v17.14H93.11v8.36Z"/><path class="cls-2" d="M98.52,113.54V55.15h24.93V63H106.89V80.17h14.43V88H106.89v17.14h16.56v8.36Z"/><path class="cls-1" d="M128.87,113.54V55.15h8l10.75,30.92h.16l10.66-30.92h8.12v58.39h-8.36V78h-.17l-8.28,25.1H145.6L137.4,78h-.17v35.51Z"/><path class="cls-2" d="M174.71,113.54V55.15h8.37v58.39Z"/></g></g></svg>